<?xml version="1.0" encoding="UTF-8"?>
<svg id="Layer_2" data-name="Layer 2" xmlns="http://www.w3.org/2000/svg" viewBox="0 0 277.72 73.05">
  <defs>
    <style>
      .cls-1 {
        fill: #8fcae5;
      }

      .cls-1, .cls-2, .cls-3, .cls-4 {
        stroke-width: 0px;
      }

      .cls-2 {
        fill: #fdb615;
      }

      .cls-3 {
        fill: #284494;
      }

      .cls-4 {
        fill: #fdb614;
      }
    </style>
  </defs>
  <g id="Layer_1-2" data-name="Layer 1">
    <g>
      <path class="cls-3" d="M7.7,6.84C12.16,2.28,17.84,0,24.74,0c9.22,0,15.97,3.06,20.24,9.17,1.95,2.84,3.15,5.69,3.61,8.55.15.94-.6,1.79-1.56,1.79h-8.67c-.67,0-1.28-.43-1.48-1.07-.68-2.13-1.52-3.78-2.52-4.95-2.06-2.41-5.12-3.61-9.17-3.61s-7.38,1.7-9.76,5.09c-2.38,3.4-3.57,8.2-3.57,14.42s1.26,10.87,3.77,13.97c2.51,3.1,5.71,4.64,9.58,4.64s7-1.33,9.08-3.99c1-1.24,1.85-3.02,2.56-5.34.2-.65.81-1.09,1.49-1.09h8.42c1.01,0,1.76.95,1.53,1.93-1.18,5.16-3.59,9.43-7.23,12.8-4.08,3.79-9.3,5.68-15.68,5.68-7.89,0-14.08-2.56-18.6-7.67C2.26,45.21,0,38.16,0,29.21,0,19.54,2.57,12.08,7.7,6.84Z"/>
      <path class="cls-3" d="M79.91,14.53c.14.01.45.03.92.06v10.98c-.68-.08-1.28-.12-1.8-.15-.53-.02-.95-.04-1.28-.04-4.31,0-7.21,1.4-8.68,4.21-.83,1.58-1.24,4.01-1.24,7.29v19.59h-10.79V15.49h10.23v7.14c1.65-2.73,3.1-4.6,4.32-5.6,2.01-1.68,4.61-2.52,7.82-2.52.2,0,.37,0,.51.02Z"/>
      <path class="cls-3" d="M113.82,16.32c2.86,1.28,5.22,3.3,7.08,6.06,1.68,2.44,2.77,5.26,3.27,8.47.29,1.88.41,4.59.35,8.13h-29.85c.17,4.11,1.59,6.99,4.29,8.65,1.64,1.03,3.61,1.54,5.91,1.54,2.44,0,4.42-.63,5.95-1.88.83-.68,1.57-1.62,2.21-2.82h10.94c-.29,2.43-1.61,4.9-3.97,7.41-3.67,3.99-8.81,5.98-15.42,5.98-5.45,0-10.27-1.68-14.44-5.04-4.17-3.36-6.25-8.83-6.25-16.41,0-7.1,1.88-12.54,5.65-16.33,3.76-3.79,8.65-5.68,14.65-5.68,3.57,0,6.78.64,9.64,1.92ZM97.79,25.58c-1.51,1.56-2.46,3.67-2.85,6.34h18.46c-.2-2.84-1.15-5-2.85-6.48s-3.83-2.21-6.36-2.21c-2.75,0-4.88.78-6.4,2.34Z"/>
      <path class="cls-3" d="M146.17,31.54c1.99-.25,3.42-.56,4.28-.94,1.54-.65,2.31-1.67,2.31-3.05,0-1.68-.59-2.84-1.77-3.48-1.18-.64-2.92-.96-5.2-.96-2.57,0-4.38.63-5.45,1.88-.76.93-1.27,2.18-1.53,3.76h-10.34c.23-3.58,1.23-6.53,3.02-8.84,2.84-3.61,7.73-5.41,14.65-5.41,4.51,0,8.51.89,12.01,2.67,3.5,1.78,5.25,5.14,5.25,10.08v18.8c0,1.3.02,2.88.07,4.74.08,1.4.29,2.36.64,2.86.35.5.88.92,1.58,1.24v1.58h-11.66c-.33-.83-.55-1.6-.68-2.33-.13-.73-.23-1.55-.3-2.48-1.49,1.6-3.2,2.97-5.14,4.1-2.32,1.33-4.94,1.99-7.87,1.99-3.73,0-6.81-1.06-9.25-3.18-2.43-2.12-3.65-5.12-3.65-9,0-5.04,1.96-8.69,5.87-10.94,2.15-1.23,5.3-2.11,9.47-2.63l3.67-.45ZM152.72,36.54c-.69.43-1.38.77-2.08,1.03-.7.26-1.66.51-2.88.73l-2.44.45c-2.29.4-3.93.89-4.93,1.47-1.69.98-2.53,2.49-2.53,4.55,0,1.83.52,3.15,1.55,3.97,1.03.81,2.28,1.22,3.76,1.22,2.34,0,4.5-.68,6.47-2.03s3-3.82,3.07-7.41v-3.99Z"/>
      <path class="cls-3" d="M168.55,23.5v-7.63h5.71V4.44h10.6v11.43h6.65v7.63h-6.65v21.66c0,1.68.21,2.73.64,3.14.43.41,1.73.62,3.91.62.33,0,.67,0,1.03-.02.36-.01.72-.03,1.07-.06v8.01l-5.08.19c-5.06.18-8.52-.7-10.38-2.63-1.2-1.23-1.8-3.12-1.8-5.68v-25.23h-5.71Z"/>
      <path class="cls-3" d="M206.71,43.39c.23,1.91.72,3.26,1.47,4.06,1.33,1.43,3.8,2.14,7.4,2.14,2.12,0,3.8-.31,5.04-.94,1.25-.63,1.87-1.57,1.87-2.82s-.5-2.12-1.51-2.74c-1-.63-4.74-1.7-11.21-3.23-4.66-1.15-7.94-2.59-9.84-4.32-1.91-1.7-2.86-4.16-2.86-7.37,0-3.78,1.49-7.04,4.46-9.76s7.17-4.08,12.57-4.08,9.3,1.02,12.53,3.06c3.23,2.04,5.08,5.57,5.56,10.58h-10.71c-.15-1.38-.54-2.47-1.17-3.27-1.18-1.45-3.19-2.18-6.03-2.18-2.34,0-4,.36-5,1.09-.99.73-1.49,1.58-1.49,2.56,0,1.23.53,2.12,1.58,2.67,1.06.58,4.78,1.57,11.19,2.97,4.27,1,7.47,2.52,9.6,4.55,2.11,2.06,3.16,4.62,3.16,7.71,0,4.06-1.51,7.38-4.54,9.94-3.03,2.57-7.7,3.85-14.03,3.85s-11.22-1.36-14.3-4.08c-3.08-2.72-4.62-6.18-4.62-10.4h10.87Z"/>
      <path class="cls-3" d="M242.84,64.33l1.35.08c1.05.05,2.05.01,3.01-.11.95-.13,1.75-.41,2.41-.87.63-.43,1.21-1.32,1.75-2.67s.77-2.18.7-2.48l-15.06-42.79h11.92l8.95,30.23,8.46-30.23h11.39l-14.05,40.3c-2.72,7.77-4.86,12.59-6.44,14.46s-4.74,2.8-9.49,2.8c-.95,0-1.72,0-2.29-.02-.58-.01-1.44-.06-2.6-.13v-8.57Z"/>
      <circle id="circle13021" class="cls-4" cx="37.8" cy="27.67" r="5"/>
      <circle id="circle13021-2" data-name="circle13021" class="cls-1" cx="49.26" cy="27.67" r="5"/>
      <rect class="cls-1" x="266.93" y=".6" width="10.79" height="10" rx="1.7" ry="1.7"/>
      <rect class="cls-2" x="237" y=".6" width="10.79" height="10" rx="1.7" ry="1.7"/>
    </g>
  </g>
</svg>